[decklink @ 0x55b69461ff40] Autodetected the input mode
[decklink @ 0x55b69461ff40] Found Decklink mode 1920 x 1080 with rate 25.00(i)
[aist#0:0/pcm_s16le @ 0x55b694639140] Guessed Channel Layout: stereo
Input #0, decklink, from 'DeckLink Mini Recorder HD':
  Duration: N/A, start: 1756392582.776151, bitrate: 830976 kb/s
  Stream #0:0: Audio: pcm_s16le, 48000 Hz, stereo, s16, 1536 kb/s
  Stream #0:1: Video: rawvideo (UYVY / 0x59565955), uyvy422(top first), 1920x1080, 829440 kb/s, 25 fps, 25 tbr, 1000k tbn
Stream mapping:
  Stream #0:1 -> #0:0 (rawvideo (native) -> h264 (libx264))
  Stream #0:0 -> #0:1 (pcm_s16le (native) -> aac (native))
Press [q] to stop, [?] for help
[libx264 @ 0x55b694635940] using cpu capabilities: MMX2 SSE2Fast SSSE3 SSE4.2 AVX FMA3 BMI2 AVX2
[libx264 @ 0x55b694635940] profile High, level 4.0, 4:2:0, 8-bit
Output #0, tee, to '[f=flv:onfail=ignore]rtmp://a.rtmp.youtube.com/live2/8780-fb17-duya-wym5-175v?rtmp_live=1|[f=flv:onfail=ignore]rtmps://live-api-s.facebook.com:443/rtmp/FB-30953084464336071-0-Ab04JtGRsjhC8YpddNLhzlI2?rtmp_live=1':
  Metadata:
    encoder         : Lavf61.1.100
  Stream #0:0: Video: h264, yuv420p(top coded first (swapped)), 1920x1080, q=2-31, 4500 kb/s, 25 fps, 25 tbn
      Metadata:
        encoder         : Lavc61.3.100 libx264
      Side data:
        cpb: bitrate max/min/avg: 4500000/0/4500000 buffer size: 9000000 vbv_delay: N/A
  Stream #0:1: Audio: aac (LC), 48000 Hz, stereo, fltp, 128 kb/s
      Metadata:
        encoder         : Lavc61.3.100 aac
[aac @ 0x55b69463d200] Queue input is backward in time
    Last message repeated 1 times
[aost#0:1/aac @ 0x55b69463cd80] Non-monotonic DTS; previous: 184554, current: 184136; changing to 184555. This may result in incorrect timestamps in the output file.
[aac @ 0x55b69463d200] Queue input is backward in time
[aost#0:1/aac @ 0x55b69463cd80] Non-monotonic DTS; previous: 185160, current: 184806; changing to 185161. This may result in incorrect timestamps in the output file.
[aac @ 0x55b69463d200] Queue input is backward in time
[aost#0:1/aac @ 0x55b69463cd80] Non-monotonic DTS; previous: 185830, current: 185355; changing to 185831. This may result in incorrect timestamps in the output file.
[aac @ 0x55b69463d200] Queue input is backward in time
    Last message repeated 1 times
[aost#0:1/aac @ 0x55b69463cd80] Non-monotonic DTS; previous: 186379, current: 185931; changing to 186380. This may result in incorrect timestamps in the output file.
[aac @ 0x55b69463d200] Queue input is backward in time
[aost#0:1/aac @ 0x55b69463cd80] Non-monotonic DTS; previous: 186955, current: 186293; changing to 186956. This may result in incorrect timestamps in the output file.
[aost#0:1/aac @ 0x55b69463cd80] Non-monotonic DTS; previous: 186956, current: 185762; changing to 186957. This may result in incorrect timestamps in the output file.
[aac @ 0x55b69463d200] Queue input is backward in time
[aost#0:1/aac @ 0x55b69463cd80] Non-monotonic DTS; previous: 186957, current: 186786; changing to 186958. This may result in incorrect timestamps in the output file.
[aost#0:1/aac @ 0x55b69463cd80] Non-monotonic DTS; previous: 186958, current: 186217; changing to 186959. This may result in incorrect timestamps in the output file.
[aac @ 0x55b69463d200] Queue input is backward in time
[aost#0:1/aac @ 0x55b69463cd80] Non-monotonic DTS; previous: 187241, current: 186534; changing to 187242. This may result in incorrect timestamps in the output file.
[aac @ 0x55b69463d200] Queue input is backward in time
[aost#0:1/aac @ 0x55b69463cd80] Non-monotonic DTS; previous: 187558, current: 187027; changing to 187559. This may result in incorrect timestamps in the output file.
[aac @ 0x55b69463d200] Queue input is backward in time
[aost#0:1/aac @ 0x55b69463cd80] Non-monotonic DTS; previous: 188051, current: 187452; changing to 188052. This may result in incorrect timestamps in the output file.
[aac @ 0x55b69463d200] Queue input is backward in time
[aost#0:1/aac @ 0x55b69463cd80] Non-monotonic DTS; previous: 188476, current: 187638; changing to 188477. This may result in incorrect timestamps in the output file.
[aac @ 0x55b69463d200] Queue input is backward in time
[aost#0:1/aac @ 0x55b69463cd80] Non-monotonic DTS; previous: 188662, current: 188102; changing to 188663. This may result in incorrect timestamps in the output file.
[aac @ 0x55b69463d200] Queue input is backward in time
    Last message repeated 1 times
[aost#0:1/aac @ 0x55b69463cd80] Non-monotonic DTS; previous: 189126, current: 188492; changing to 189127. This may result in incorrect timestamps in the output file.
[aost#0:1/aac @ 0x55b69463cd80] Non-monotonic DTS; previous: 189127, current: 188452; changing to 189128. This may result in incorrect timestamps in the output file.
[aac @ 0x55b69463d200] Queue input is backward in time
[aost#0:1/aac @ 0x55b69463cd80] Non-monotonic DTS; previous: 189476, current: 189411; changing to 189477. This may result in incorrect timestamps in the output file.
[aac @ 0x55b69463d200] Queue input is backward in time
[aost#0:1/aac @ 0x55b69463cd80] Non-monotonic DTS; previous: 190435, current: 190199; changing to 190436. This may result in incorrect timestamps in the output file.
frame=    9 fps=2.6 q=27.0 size=N/A time=00:00:00.36 bitrate=N/A speed=0.103x    [aac @ 0x55b69463d200] Queue input is backward in time
[aost#0:1/aac @ 0x55b69463cd80] Non-monotonic DTS; previous: 191223, current: 191147; changing to 191224. This may result in incorrect timestamps in the output file.
frame=   62 fps= 15 q=8.0 size=N/A time=00:00:02.48 bitrate=N/A dup=76 drop=0 speed=0.62x    [aost#0:1/aac @ 0x55b69463cd80] Non-monotonic DTS; previous: 192171, current: 191890; changing to 192172. This may result in incorrect timestamps in the output file.
[aac @ 0x55b69463d200] Queue input is backward in time
    Last message repeated 1 times
[aost#0:1/aac @ 0x55b69463cd80] Non-monotonic DTS; previous: 226897, current: 226445; changing to 226898. This may result in incorrect timestamps in the output file.
[aac @ 0x55b69463d200] Queue input is backward in time
    Last message repeated 1 times
[aost#0:1/aac @ 0x55b69463cd80] Non-monotonic DTS; previous: 227469, current: 227049; changing to 227470. This may result in incorrect timestamps in the output file.
[aost#0:1/aac @ 0x55b69463cd80] Non-monotonic DTS; previous: 227470, current: 226725; changing to 227471. This may result in incorrect timestamps in the output file.
[aac @ 0x55b69463d200] Queue input is backward in time
[aost#0:1/aac @ 0x55b69463cd80] Non-monotonic DTS; previous: 227749, current: 226918; changing to 227750. This may result in incorrect timestamps in the output file.
[aac @ 0x55b69463d200] Queue input is backward in time
[aost#0:1/aac @ 0x55b69463cd80] Non-monotonic DTS; previous: 227942, current: 227098; changing to 227943. This may result in incorrect timestamps in the output file.
[aac @ 0x55b69463d200] Queue input is backward in time
[aost#0:1/aac @ 0x55b69463cd80] Non-monotonic DTS; previous: 228122, current: 227288; changing to 228123. This may result in incorrect timestamps in the output file.
[aac @ 0x55b69463d200] Queue input is backward in time
[aost#0:1/aac @ 0x55b69463cd80] Non-monotonic DTS; previous: 228312, current: 227738; changing to 228313. This may result in incorrect timestamps in the output file.
[aac @ 0x55b69463d200] Queue input is backward in time
[aost#0:1/aac @ 0x55b69463cd80] Non-monotonic DTS; previous: 228762, current: 227944; changing to 228763. This may result in incorrect timestamps in the output file.
[aac @ 0x55b69463d200] Queue input is backward in time
    Last message repeated 1 times
[aost#0:1/aac @ 0x55b69463cd80] Non-monotonic DTS; previous: 228968, current: 228126; changing to 228969. This may result in incorrect timestamps in the output file.
[aac @ 0x55b69463d200] Queue input is backward in time
[aost#0:1/aac @ 0x55b69463cd80] Non-monotonic DTS; previous: 229150, current: 228328; changing to 229151. This may result in incorrect timestamps in the output file.
[aost#0:1/aac @ 0x55b69463cd80] Non-monotonic DTS; previous: 229151, current: 227499; changing to 229152. This may result in incorrect timestamps in the output file.
[aac @ 0x55b69463d200] Queue input is backward in time
[aost#0:1/aac @ 0x55b69463cd80] Non-monotonic DTS; previous: 229152, current: 228523; changing to 229153. This may result in incorrect timestamps in the output file.
[aost#0:1/aac @ 0x55b69463cd80] Non-monotonic DTS; previous: 229153, current: 227716; changing to 229154. This may result in incorrect timestamps in the output file.
[aac @ 0x55b69463d200] Queue input is backward in time
[aost#0:1/aac @ 0x55b69463cd80] Non-monotonic DTS; previous: 229154, current: 228740; changing to 229155. This may result in incorrect timestamps in the output file.
[aost#0:1/aac @ 0x55b69463cd80] Non-monotonic DTS; previous: 229155, current: 227943; changing to 229156. This may result in incorrect timestamps in the output file.
[aac @ 0x55b69463d200] Queue input is backward in time
[aost#0:1/aac @ 0x55b69463cd80] Non-monotonic DTS; previous: 229156, current: 228967; changing to 229157. This may result in incorrect timestamps in the output file.
[aost#0:1/aac @ 0x55b69463cd80] Non-monotonic DTS; previous: 229157, current: 228692; changing to 229158. This may result in incorrect timestamps in the output file.
[aac @ 0x55b69463d200] Queue input is backward in time
[aost#0:1/aac @ 0x55b69463cd80] Non-monotonic DTS; previous: 229716, current: 228887; changing to 229717. This may result in incorrect timestamps in the output file.
[aac @ 0x55b69463d200] Queue input is backward in time
[aost#0:1/aac @ 0x55b69463cd80] Non-monotonic DTS; previous: 229911, current: 229740; changing to 229912. This may result in incorrect timestamps in the output file.
[aac @ 0x55b69463d200] Queue input is backward in time
[aost#0:1/aac @ 0x55b69463cd80] Non-monotonic DTS; previous: 230764, current: 229964; changing to 230765. This may result in incorrect timestamps in the output file.
frame=   97 fps= 22 q=15.0 size=N/A time=00:00:04.20 bitrate=N/A dup=90 drop=11 speed=0.933x    [aac @ 0x55b69463d200] Queue input is backward in time
[aost#0:1/aac @ 0x55b69463cd80] Non-monotonic DTS; previous: 230988, current: 230161; changing to 230989. This may result in incorrect timestamps in the output file.
[aac @ 0x55b69463d200] Queue input is backward in time
[aost#0:1/aac @ 0x55b69463cd80] Non-monotonic DTS; previous: 248564, current: 248138; changing to 248565. This may result in incorrect timestamps in the output file.
[aac @ 0x55b69463d200] Queue input is backward in time
[aost#0:1/aac @ 0x55b69463cd80] Non-monotonic DTS; previous: 249162, current: 248735; changing to 249163. This may result in incorrect timestamps in the output file.
[aac @ 0x55b69463d200] Queue input is backward in time
[aost#0:1/aac @ 0x55b69463cd80] Non-monotonic DTS; previous: 249759, current: 249333; changing to 249760. This may result in incorrect timestamps in the output file.
[aac @ 0x55b69463d200] Queue input is backward in time
[aost#0:1/aac @ 0x55b69463cd80] Non-monotonic DTS; previous: 250357, current: 249526; changing to 250358. This may result in incorrect timestamps in the output file.
[aac @ 0x55b69463d200] Queue input is backward in time
[aost#0:1/aac @ 0x55b69463cd80] Non-monotonic DTS; previous: 250550, current: 249706; changing to 250551. This may result in incorrect timestamps in the output file.
[aac @ 0x55b69463d200] Queue input is backward in time
    Last message repeated 1 times
[aost#0:1/aac @ 0x55b69463cd80] Non-monotonic DTS; previous: 250730, current: 249898; changing to 250731. This may result in incorrect timestamps in the output file.
[aac @ 0x55b69463d200] Queue input is backward in time
[aost#0:1/aac @ 0x55b69463cd80] Non-monotonic DTS; previous: 250922, current: 250088; changing to 250923. This may result in incorrect timestamps in the output file.
[aost#0:1/aac @ 0x55b69463cd80] Non-monotonic DTS; previous: 250923, current: 249279; changing to 250924. This may result in incorrect timestamps in the output file.
[aac @ 0x55b69463d200] Queue input is backward in time
[aost#0:1/aac @ 0x55b69463cd80] Non-monotonic DTS; previous: 250924, current: 250303; changing to 250925. This may result in incorrect timestamps in the output file.
[aost#0:1/aac @ 0x55b69463cd80] Non-monotonic DTS; previous: 250925, current: 249490; changing to 250926. This may result in incorrect timestamps in the output file.
[aac @ 0x55b69463d200] Queue input is backward in time
    Last message repeated 3 times
[aost#0:1/aac @ 0x55b69463cd80] Non-monotonic DTS; previous: 250926, current: 250514; changing to 250927. This may result in incorrect timestamps in the output file.
[aost#0:1/aac @ 0x55b69463cd80] Non-monotonic DTS; previous: 250927, current: 249722; changing to 250928. This may result in incorrect timestamps in the output file.
[aac @ 0x55b69463d200] Queue input is backward in time
[aost#0:1/aac @ 0x55b69463cd80] Non-monotonic DTS; previous: 250928, current: 250746; changing to 250929. This may result in incorrect timestamps in the output file.
[aost#0:1/aac @ 0x55b69463cd80] Non-monotonic DTS; previous: 250929, current: 249924; changing to 250930. This may result in incorrect timestamps in the output file.
[aost#0:1/aac @ 0x55b69463cd80] Non-monotonic DTS; previous: 250948, current: 250114; changing to 250949. This may result in incorrect timestamps in the output file.
[aost#0:1/aac @ 0x55b69463cd80] Non-monotonic DTS; previous: 251138, current: 250307; changing to 251139. This may result in incorrect timestamps in the output file.
[aac @ 0x55b69463d200] Queue input is backward in time
    Last message repeated 1 times
[aost#0:1/aac @ 0x55b69463cd80] Non-monotonic DTS; previous: 251331, current: 250725; changing to 251332. This may result in incorrect timestamps in the output file.
[aost#0:1/aac @ 0x55b69463cd80] Non-monotonic DTS; previous: 251749, current: 250937; changing to 251750. This may result in incorrect timestamps in the output file.
[aost#0:1/aac @ 0x55b69463cd80] Non-monotonic DTS; previous: 251750, current: 250100; changing to 251751. This may result in incorrect timestamps in the output file.
[aac @ 0x55b69463d200] Queue input is backward in time
[aost#0:1/aac @ 0x55b69463cd80] Non-monotonic DTS; previous: 251751, current: 251124; changing to 251752. This may result in incorrect timestamps in the output file.
[aost#0:1/aac @ 0x55b69463cd80] Non-monotonic DTS; previous: 251752, current: 250296; changing to 251753. This may result in incorrect timestamps in the output file.
[aost#0:1/aac @ 0x55b69463cd80] Non-monotonic DTS; previous: 251753, current: 251320; changing to 251754. This may result in incorrect timestamps in the output file.
[aost#0:1/aac @ 0x55b69463cd80] Non-monotonic DTS; previous: 251754, current: 250487; changing to 251755. This may result in incorrect timestamps in the output file.
[aost#0:1/aac @ 0x55b69463cd80] Non-monotonic DTS; previous: 251755, current: 251511; changing to 251756. This may result in incorrect timestamps in the output file.
[aac @ 0x55b69463d200] Queue input is backward in time
    Last message repeated 1 times
[aost#0:1/aac @ 0x55b69463cd80] Non-monotonic DTS; previous: 256751, current: 256611; changing to 256752. This may result in incorrect timestamps in the output file.
[aac @ 0x55b69463d200] Queue input is backward in time
    Last message repeated 1 times
[aost#0:1/aac @ 0x55b69463cd80] Non-monotonic DTS; previous: 257635, current: 256805; changing to 257636. This may result in incorrect timestamps in the output file.
[aac @ 0x55b69463d200] Queue input is backward in time
[aost#0:1/aac @ 0x55b69463cd80] Non-monotonic DTS; previous: 257829, current: 256997; changing to 257830. This may result in incorrect timestamps in the output file.
[aost#0:1/aac @ 0x55b69463cd80] Non-monotonic DTS; previous: 257830, current: 256162; changing to 257831. This may result in incorrect timestamps in the output file.
[aac @ 0x55b69463d200] Queue input is backward in time
[aost#0:1/aac @ 0x55b69463cd80] Non-monotonic DTS; previous: 257831, current: 257186; changing to 257832. This may result in incorrect timestamps in the output file.
[aost#0:1/aac @ 0x55b69463cd80] Non-monotonic DTS; previous: 257832, current: 256327; changing to 257833. This may result in incorrect timestamps in the output file.
[aac @ 0x55b69463d200] Queue input is backward in time
[aost#0:1/aac @ 0x55b69463cd80] Non-monotonic DTS; previous: 257833, current: 257351; changing to 257834. This may result in incorrect timestamps in the output file.
[aost#0:1/aac @ 0x55b69463cd80] Non-monotonic DTS; previous: 257834, current: 256495; changing to 257835. This may result in incorrect timestamps in the output file.
[aac @ 0x55b69463d200] Queue input is backward in time
[aost#0:1/aac @ 0x55b69463cd80] Non-monotonic DTS; previous: 257835, current: 257519; changing to 257836. This may result in incorrect timestamps in the output file.
[aost#0:1/aac @ 0x55b69463cd80] Non-monotonic DTS; previous: 257836, current: 256661; changing to 257837. This may result in incorrect timestamps in the output file.
[aac @ 0x55b69463d200] Queue input is backward in time
[aost#0:1/aac @ 0x55b69463cd80] Non-monotonic DTS; previous: 257837, current: 257685; changing to 257838. This may result in incorrect timestamps in the output file.
[aost#0:1/aac @ 0x55b69463cd80] Non-monotonic DTS; previous: 257838, current: 256838; changing to 257839. This may result in incorrect timestamps in the output file.
[aac @ 0x55b69463d200] Queue input is backward in time
[aost#0:1/aac @ 0x55b69463cd80] Non-monotonic DTS; previous: 257862, current: 257361; changing to 257863. This may result in incorrect timestamps in the output file.
[aac @ 0x55b69463d200] Queue input is backward in time
    Last message repeated 1 times
[aost#0:1/aac @ 0x55b69463cd80] Non-monotonic DTS; previous: 258385, current: 257524; changing to 258386. This may result in incorrect timestamps in the output file.
[aac @ 0x55b69463d200] Queue input is backward in time
[aost#0:1/aac @ 0x55b69463cd80] Non-monotonic DTS; previous: 258548, current: 257688; changing to 258549. This may result in incorrect timestamps in the output file.
[aost#0:1/aac @ 0x55b69463cd80] Non-monotonic DTS; previous: 258549, current: 256819; changing to 258550. This may result in incorrect timestamps in the output file.
[aac @ 0x55b69463d200] Queue input is backward in time
[aost#0:1/aac @ 0x55b69463cd80] Non-monotonic DTS; previous: 258550, current: 257843; changing to 258551. This may result in incorrect timestamps in the output file.
[aost#0:1/aac @ 0x55b69463cd80] Non-monotonic DTS; previous: 258551, current: 256975; changing to 258552. This may result in incorrect timestamps in the output file.
[aac @ 0x55b69463d200] Queue input is backward in time
[aost#0:1/aac @ 0x55b69463cd80] Non-monotonic DTS; previous: 258552, current: 257999; changing to 258553. This may result in incorrect timestamps in the output file.
[aost#0:1/aac @ 0x55b69463cd80] Non-monotonic DTS; previous: 258553, current: 257133; changing to 258554. This may result in incorrect timestamps in the output file.
[aac @ 0x55b69463d200] Queue input is backward in time
[aost#0:1/aac @ 0x55b69463cd80] Non-monotonic DTS; previous: 258554, current: 258157; changing to 258555. This may result in incorrect timestamps in the output file.
[aost#0:1/aac @ 0x55b69463cd80] Non-monotonic DTS; previous: 258555, current: 257289; changing to 258556. This may result in incorrect timestamps in the output file.
[aac @ 0x55b69463d200] Queue input is backward in time
[aost#0:1/aac @ 0x55b69463cd80] Non-monotonic DTS; previous: 258556, current: 258313; changing to 258557. This may result in incorrect timestamps in the output file.
[aost#0:1/aac @ 0x55b69463cd80] Non-monotonic DTS; previous: 258557, current: 257446; changing to 258558. This may result in incorrect timestamps in the output file.
[aac @ 0x55b69463d200] Queue input is backward in time
[aost#0:1/aac @ 0x55b69463cd80] Non-monotonic DTS; previous: 258558, current: 258470; changing to 258559. This may result in incorrect timestamps in the output file.
[aost#0:1/aac @ 0x55b69463cd80] Non-monotonic DTS; previous: 258559, current: 257602; changing to 258560. This may result in incorrect timestamps in the output file.
[aac @ 0x55b69463d200] Queue input is backward in time
[aost#0:1/aac @ 0x55b69463cd80] Non-monotonic DTS; previous: 258626, current: 258118; changing to 258627. This may result in incorrect timestamps in the output file.
[aac @ 0x55b69463d200] Queue input is backward in time
    Last message repeated 1 times
[aost#0:1/aac @ 0x55b69463cd80] Non-monotonic DTS; previous: 259142, current: 258793; changing to 259143. This may result in incorrect timestamps in the output file.
[aost#0:1/aac @ 0x55b69463cd80] Non-monotonic DTS; previous: 259143, current: 258430; changing to 259144. This may result in incorrect timestamps in the output file.
[aac @ 0x55b69463d200] Queue input is backward in time
[aost#0:1/aac @ 0x55b69463cd80] Non-monotonic DTS; previous: 259454, current: 258610; changing to 259455. This may result in incorrect timestamps in the output file.
[aac @ 0x55b69463d200] Queue input is backward in time
[aost#0:1/aac @ 0x55b69463cd80] Non-monotonic DTS; previous: 259634, current: 258783; changing to 259635. This may result in incorrect timestamps in the output file.
[aac @ 0x55b69463d200] Queue input is backward in time
[aost#0:1/aac @ 0x55b69463cd80] Non-monotonic DTS; previous: 259807, current: 258956; changing to 259808. This may result in incorrect timestamps in the output file.
[aac @ 0x55b69463d200] Queue input is backward in time
[aost#0:1/aac @ 0x55b69463cd80] Non-monotonic DTS; previous: 259980, current: 259130; changing to 259981. This may result in incorrect timestamps in the output file.
[aac @ 0x55b69463d200] Queue input is backward in time
[aost#0:1/aac @ 0x55b69463cd80] Non-monotonic DTS; previous: 260154, current: 259305; changing to 260155. This may result in incorrect timestamps in the output file.
[aac @ 0x55b69463d200] Queue input is backward in time
    Last message repeated 1 times
[aost#0:1/aac @ 0x55b69463cd80] Non-monotonic DTS; previous: 260329, current: 259482; changing to 260330. This may result in incorrect timestamps in the output file.
[aac @ 0x55b69463d200] Queue input is backward in time
[aost#0:1/aac @ 0x55b69463cd80] Non-monotonic DTS; previous: 260506, current: 259659; changing to 260507. This may result in incorrect timestamps in the output file.
[aost#0:1/aac @ 0x55b69463cd80] Non-monotonic DTS; previous: 260507, current: 258815; changing to 260508. This may result in incorrect timestamps in the output file.
[aac @ 0x55b69463d200] Queue input is backward in time
[aost#0:1/aac @ 0x55b69463cd80] Non-monotonic DTS; previous: 260508, current: 259839; changing to 260509. This may result in incorrect timestamps in the output file.
[aost#0:1/aac @ 0x55b69463cd80] Non-monotonic DTS; previous: 260509, current: 258993; changing to 260510. This may result in incorrect timestamps in the output file.
[aac @ 0x55b69463d200] Queue input is backward in time
[aost#0:1/aac @ 0x55b69463cd80] Non-monotonic DTS; previous: 260510, current: 260017; changing to 260511. This may result in incorrect timestamps in the output file.
[aost#0:1/aac @ 0x55b69463cd80] Non-monotonic DTS; previous: 260511, current: 259176; changing to 260512. This may result in incorrect timestamps in the output file.
[aac @ 0x55b69463d200] Queue input is backward in time
    Last message repeated 3 times
[aost#0:1/aac @ 0x55b69463cd80] Non-monotonic DTS; previous: 260512, current: 260200; changing to 260513. This may result in incorrect timestamps in the output file.
[aost#0:1/aac @ 0x55b69463cd80] Non-monotonic DTS; previous: 260513, current: 259357; changing to 260514. This may result in incorrect timestamps in the output file.
[aac @ 0x55b69463d200] Queue input is backward in time
[aost#0:1/aac @ 0x55b69463cd80] Non-monotonic DTS; previous: 260514, current: 260381; changing to 260515. This may result in incorrect timestamps in the output file.
[aost#0:1/aac @ 0x55b69463cd80] Non-monotonic DTS; previous: 260515, current: 259538; changing to 260516. This may result in incorrect timestamps in the output file.
[aac @ 0x55b69463d200] Queue input is backward in time
    Last message repeated 1 times
[aost#0:1/aac @ 0x55b69463cd80] Non-monotonic DTS; previous: 260562, current: 259729; changing to 260563. This may result in incorrect timestamps in the output file.
[aost#0:1/aac @ 0x55b69463cd80] Non-monotonic DTS; previous: 260753, current: 259930; changing to 260754. This may result in incorrect timestamps in the output file.
[aac @ 0x55b69463d200] Queue input is backward in time
    Last message repeated 1 times
[aost#0:1/aac @ 0x55b69463cd80] Non-monotonic DTS; previous: 260954, current: 260143; changing to 260955. This may result in incorrect timestamps in the output file.
[aost#0:1/aac @ 0x55b69463cd80] Non-monotonic DTS; previous: 260955, current: 259454; changing to 260956. This may result in incorrect timestamps in the output file.
[aost#0:1/aac @ 0x55b69463cd80] Non-monotonic DTS; previous: 260956, current: 260478; changing to 260957. This may result in incorrect timestamps in the output file.
[aost#0:1/aac @ 0x55b69463cd80] Non-monotonic DTS; previous: 260957, current: 260027; changing to 260958. This may result in incorrect timestamps in the output file.
[aost#0:1/aac @ 0x55b69463cd80] Non-monotonic DTS; previous: 261051, current: 260201; changing to 261052. This may result in incorrect timestamps in the output file.
[aost#0:1/aac @ 0x55b69463cd80] Non-monotonic DTS; previous: 261225, current: 260376; changing to 261226. This may result in incorrect timestamps in the output file.
[aac @ 0x55b69463d200] Queue input is backward in time
[aost#0:1/aac @ 0x55b69463cd80] Non-monotonic DTS; previous: 261400, current: 260556; changing to 261401. This may result in incorrect timestamps in the output file.
[aac @ 0x55b69463d200] Queue input is backward in time
[aost#0:1/aac @ 0x55b69463cd80] Non-monotonic DTS; previous: 261580, current: 260732; changing to 261581. This may result in incorrect timestamps in the output file.
[aac @ 0x55b69463d200] Queue input is backward in time
    Last message repeated 1 times
[aost#0:1/aac @ 0x55b69463cd80] Non-monotonic DTS; previous: 261756, current: 260909; changing to 261757. This may result in incorrect timestamps in the output file.
[aac @ 0x55b69463d200] Queue input is backward in time
[aost#0:1/aac @ 0x55b69463cd80] Non-monotonic DTS; previous: 261933, current: 261082; changing to 261934. This may result in incorrect timestamps in the output file.
[aost#0:1/aac @ 0x55b69463cd80] Non-monotonic DTS; previous: 261934, current: 260230; changing to 261935. This may result in incorrect timestamps in the output file.
[aac @ 0x55b69463d200] Queue input is backward in time
[aost#0:1/aac @ 0x55b69463cd80] Non-monotonic DTS; previous: 261935, current: 261254; changing to 261936. This may result in incorrect timestamps in the output file.
frame=  132 fps= 26 q=21.0 size=N/A time=00:00:05.28 bitrate=N/A dup=96 drop=94 speed=1.06x    [aost#0:1/aac @ 0x55b69463cd80] Non-monotonic DTS; previous: 261936, current: 260399; changing to 261937. This may result in incorrect timestamps in the output file.
[aac @ 0x55b69463d200] Queue input is backward in time
[aost#0:1/aac @ 0x55b69463cd80] Non-monotonic DTS; previous: 261937, current: 261423; changing to 261938. This may result in incorrect timestamps in the output file.
[aost#0:1/aac @ 0x55b69463cd80] Non-monotonic DTS; previous: 261938, current: 260571; changing to 261939. This may result in incorrect timestamps in the output file.
[aac @ 0x55b69463d200] Queue input is backward in time
[aost#0:1/aac @ 0x55b69463cd80] Non-monotonic DTS; previous: 261939, current: 261595; changing to 261940. This may result in incorrect timestamps in the output file.
[aost#0:1/aac @ 0x55b69463cd80] Non-monotonic DTS; previous: 261940, current: 260760; changing to 261941. This may result in incorrect timestamps in the output file.
[aac @ 0x55b69463d200] Queue input is backward in time
[aost#0:1/aac @ 0x55b69463cd80] Non-monotonic DTS; previous: 261941, current: 261784; changing to 261942. This may result in incorrect timestamps in the output file.
[aost#0:1/aac @ 0x55b69463cd80] Non-monotonic DTS; previous: 261942, current: 260956; changing to 261943. This may result in incorrect timestamps in the output file.
[aac @ 0x55b69463d200] Queue input is backward in time
[aost#0:1/aac @ 0x55b69463cd80] Non-monotonic DTS; previous: 261980, current: 261157; changing to 261981. This may result in incorrect timestamps in the output file.
[aac @ 0x55b69463d200] Queue input is backward in time
    Last message repeated 1 times
[aost#0:1/aac @ 0x55b69463cd80] Non-monotonic DTS; previous: 262181, current: 261326; changing to 262182. This may result in incorrect timestamps in the output file.
[aac @ 0x55b69463d200] Queue input is backward in time
[aost#0:1/aac @ 0x55b69463cd80] Non-monotonic DTS; previous: 262350, current: 261994; changing to 262351. This may result in incorrect timestamps in the output file.
[aost#0:1/aac @ 0x55b69463cd80] Non-monotonic DTS; previous: 262351, current: 261149; changing to 262352. This may result in incorrect timestamps in the output file.
[aac @ 0x55b69463d200] Queue input is backward in time
[aost#0:1/aac @ 0x55b69463cd80] Non-monotonic DTS; previous: 262352, current: 262173; changing to 262353. This may result in incorrect timestamps in the output file.
[aost#0:1/aac @ 0x55b69463cd80] Non-monotonic DTS; previous: 262353, current: 261463; changing to 262354. This may result in incorrect timestamps in the output file.
[aac @ 0x55b69463d200] Queue input is backward in time
[aost#0:1/aac @ 0x55b69463cd80] Non-monotonic DTS; previous: 262487, current: 261683; changing to 262488. This may result in incorrect timestamps in the output file.
[aac @ 0x55b69463d200] Queue input is backward in time
[aost#0:1/aac @ 0x55b69463cd80] Non-monotonic DTS; previous: 262707, current: 261822; changing to 262708. This may result in incorrect timestamps in the output file.
[aac @ 0x55b69463d200] Queue input is backward in time
[aost#0:1/aac @ 0x55b69463cd80] Non-monotonic DTS; previous: 262846, current: 262003; changing to 262847. This may result in incorrect timestamps in the output file.
[aac @ 0x55b69463d200] Queue input is backward in time
[aost#0:1/aac @ 0x55b69463cd80] Non-monotonic DTS; previous: 263027, current: 262226; changing to 263028. This may result in incorrect timestamps in the output file.
[aac @ 0x55b69463d200] Queue input is backward in time
    Last message repeated 1 times
[aost#0:1/aac @ 0x55b69463cd80] Non-monotonic DTS; previous: 263250, current: 262368; changing to 263251. This may result in incorrect timestamps in the output file.
[aac @ 0x55b69463d200] Queue input is backward in time
[aost#0:1/aac @ 0x55b69463cd80] Non-monotonic DTS; previous: 263392, current: 263353; changing to 263393. This may result in incorrect timestamps in the output file.
[aost#0:1/aac @ 0x55b69463cd80] Non-monotonic DTS; previous: 263393, current: 262509; changing to 263394. This may result in incorrect timestamps in the output file.
[aost#0:1/aac @ 0x55b69463cd80] Non-monotonic DTS; previous: 263533, current: 263175; changing to 263534. This may result in incorrect timestamps in the output file.
frame=  152 fps= 28 q=26.0 size=N/A time=00:00:05.95 bitrate=N/A dup=96 drop=94 speed=1.08x    frame=  164 fps= 27 q=25.0 size=N/A time=00:00:06.46 bitrate=N/A dup=96 drop=94 speed=1.08x    frame=  177 fps= 27 q=25.0 size=N/A time=00:00:06.95 bitrate=N/A dup=96 drop=94 speed=1.07x    frame=  189 fps= 27 q=24.0 size=N/A time=00:00:07.46 bitrate=N/A dup=96 drop=94 speed=1.07x    frame=  202 fps= 27 q=24.0 size=N/A time=00:00:07.95 bitrate=N/A dup=96 drop=94 speed=1.06x    frame=  214 fps= 27 q=27.0 size=N/A time=00:00:08.42 bitrate=N/A dup=96 drop=94 speed=1.05x    frame=  227 fps= 27 q=26.0 size=N/A time=00:00:08.93 bitrate=N/A dup=96 drop=94 speed=1.05x    frame=  239 fps= 27 q=26.0 size=N/A time=00:00:09.47 bitrate=N/A dup=96 drop=94 speed=1.05x    frame=  252 fps= 27 q=31.0 size=N/A time=00:00:09.94 bitrate=N/A dup=96 drop=94 speed=1.05x    frame=  264 fps= 26 q=26.0 size=N/A time=00:00:10.47 bitrate=N/A dup=96 drop=94 speed=1.05x    frame=  277 fps= 26 q=26.0 size=N/A time=00:00:10.94 bitrate=N/A dup=96 drop=94 speed=1.04x    frame=  289 fps= 26 q=27.0 size=N/A time=00:00:11.47 bitrate=N/A dup=96 drop=94 speed=1.04x    frame=  302 fps= 26 q=25.0 size=N/A time=00:00:11.94 bitrate=N/A dup=96 drop=94 speed=1.04x    frame=  314 fps= 26 q=24.0 size=N/A time=00:00:12.45 bitrate=N/A dup=96 drop=94 speed=1.04x    frame=  327 fps= 26 q=24.0 size=N/A time=00:00:12.94 bitrate=N/A dup=96 drop=94 speed=1.04x    frame=  339 fps= 26 q=27.0 size=N/A time=00:00:13.46 bitrate=N/A dup=96 drop=94 speed=1.04x    frame=  352 fps= 26 q=25.0 size=N/A time=00:00:13.95 bitrate=N/A dup=96 drop=94 speed=1.03x    frame=  364 fps= 26 q=25.0 size=N/A time=00:00:14.46 bitrate=N/A dup=96 drop=94 speed=1.03x    frame=  377 fps= 26 q=24.0 size=N/A time=00:00:14.95 bitrate=N/A dup=96 drop=94 speed=1.03x    frame=  389 fps= 26 q=24.0 size=N/A time=00:00:15.46 bitrate=N/A dup=96 drop=94 speed=1.03x    frame=  402 fps= 26 q=24.0 size=N/A time=00:00:15.95 bitrate=N/A dup=96 drop=94 speed=1.03x    frame=  414 fps= 26 q=25.0 size=N/A time=00:00:16.46 bitrate=N/A dup=96 drop=94 speed=1.03x    frame=  427 fps= 26 q=26.0 size=N/A time=00:00:16.93 bitrate=N/A dup=96 drop=94 speed=1.03x    frame=  439 fps= 26 q=25.0 size=N/A time=00:00:17.45 bitrate=N/A dup=96 drop=94 speed=1.03x    frame=  452 fps= 26 q=26.0 size=N/A time=00:00:17.94 bitrate=N/A dup=96 drop=94 speed=1.02x    frame=  464 fps= 26 q=27.0 size=N/A time=00:00:18.47 bitrate=N/A dup=96 drop=94 speed=1.03x    frame=  477 fps= 26 q=25.0 size=N/A time=00:00:18.94 bitrate=N/A dup=96 drop=94 speed=1.02x    frame=  489 fps= 26 q=25.0 size=N/A time=00:00:19.47 bitrate=N/A dup=96 drop=94 speed=1.02x    frame=  502 fps= 26 q=30.0 size=N/A time=00:00:19.94 bitrate=N/A dup=96 drop=94 speed=1.02x    frame=  515 fps= 26 q=25.0 size=N/A time=00:00:20.45 bitrate=N/A dup=96 drop=94 speed=1.02x    frame=  527 fps= 26 q=25.0 size=N/A time=00:00:20.94 bitrate=N/A dup=96 drop=94 speed=1.02x    frame=  539 fps= 26 q=25.0 size=N/A time=00:00:21.46 bitrate=N/A dup=96 drop=94 speed=1.02x    frame=  552 fps= 26 q=26.0 size=N/A time=00:00:21.95 bitrate=N/A dup=96 drop=94 speed=1.02x    frame=  564 fps= 26 q=26.0 size=N/A time=00:00:22.46 bitrate=N/A dup=96 drop=94 speed=1.02x    frame=  577 fps= 26 q=29.0 size=N/A time=00:00:22.95 bitrate=N/A dup=96 drop=94 speed=1.02x    frame=  589 fps= 26 q=27.0 size=N/A time=00:00:23.46 bitrate=N/A dup=96 drop=94 speed=1.02x    frame=  602 fps= 26 q=25.0 size=N/A time=00:00:23.95 bitrate=N/A dup=96 drop=94 speed=1.02x    frame=  615 fps= 26 q=25.0 size=N/A time=00:00:24.46 bitrate=N/A dup=96 drop=94 speed=1.02x    frame=  627 fps= 26 q=25.0 size=N/A time=00:00:24.93 bitrate=N/A dup=96 drop=94 speed=1.02x    frame=  640 fps= 26 q=25.0 size=N/A time=00:00:25.47 bitrate=N/A dup=96 drop=94 speed=1.02x    frame=  652 fps= 26 q=26.0 size=N/A time=00:00:25.94 bitrate=N/A dup=96 drop=94 speed=1.02x    frame=  665 fps= 26 q=26.0 size=N/A time=00:00:26.47 bitrate=N/A dup=96 drop=94 speed=1.02x    frame=  677 fps= 26 q=26.0 size=N/A time=00:00:26.94 bitrate=N/A dup=96 drop=94 speed=1.02x    frame=  690 fps= 26 q=25.0 size=N/A time=00:00:27.47 bitrate=N/A dup=96 drop=94 speed=1.02x    frame=  702 fps= 26 q=26.0 size=N/A time=00:00:27.94 bitrate=N/A dup=96 drop=94 speed=1.02x    frame=  714 fps= 25 q=27.0 size=N/A time=00:00:28.45 bitrate=N/A dup=96 drop=94 speed=1.02x    frame=  727 fps= 25 q=27.0 size=N/A time=00:00:28.94 bitrate=N/A dup=96 drop=94 speed=1.02x    frame=  740 fps= 26 q=27.0 size=N/A time=00:00:29.46 bitrate=N/A dup=96 drop=94 speed=1.02x    frame=  752 fps= 25 q=31.0 size=N/A time=00:00:29.95 bitrate=N/A dup=96 drop=94 speed=1.01x    frame=  764 fps= 25 q=28.0 size=N/A time=00:00:30.46 bitrate=N/A dup=96 drop=94 speed=1.02x    frame=  777 fps= 25 q=29.0 size=N/A time=00:00:30.95 bitrate=N/A dup=96 drop=94 speed=1.01x    frame=  790 fps= 25 q=28.0 size=N/A time=00:00:31.46 bitrate=N/A dup=96 drop=94 speed=1.01x    frame=  802 fps= 25 q=28.0 size=N/A time=00:00:31.95 bitrate=N/A dup=96 drop=94 speed=1.01x    frame=  814 fps= 25 q=29.0 size=N/A time=00:00:32.46 bitrate=N/A dup=96 drop=94 speed=1.01x    frame=  827 fps= 25 q=28.0 size=N/A time=00:00:32.93 bitrate=N/A dup=96 drop=94 speed=1.01x    frame=  840 fps= 25 q=28.0 size=N/A time=00:00:33.47 bitrate=N/A dup=96 drop=94 speed=1.01x    frame=  852 fps= 25 q=33.0 size=N/A time=00:00:33.94 bitrate=N/A dup=96 drop=94 speed=1.01x    frame=  865 fps= 25 q=27.0 size=N/A time=00:00:34.47 bitrate=N/A dup=96 drop=94 speed=1.01x    frame=  877 fps= 25 q=26.0 size=N/A time=00:00:34.94 bitrate=N/A dup=96 drop=94 speed=1.01x    frame=  890 fps= 25 q=27.0 size=N/A time=00:00:35.47 bitrate=N/A dup=96 drop=94 speed=1.01x    frame=  902 fps= 25 q=26.0 size=N/A time=00:00:35.94 bitrate=N/A dup=96 drop=94 speed=1.01x    frame=  915 fps= 25 q=25.0 size=N/A time=00:00:36.45 bitrate=N/A dup=96 drop=94 speed=1.01x    frame=  927 fps= 25 q=25.0 size=N/A time=00:00:36.94 bitrate=N/A dup=96 drop=94 speed=1.01x    frame=  940 fps= 25 q=23.0 size=N/A time=00:00:37.46 bitrate=N/A dup=96 drop=94 speed=1.01x    frame=  952 fps= 25 q=23.0 size=N/A time=00:00:37.95 bitrate=N/A dup=96 drop=94 speed=1.01x    frame=  965 fps= 25 q=22.0 size=N/A time=00:00:38.46 bitrate=N/A dup=96 drop=94 speed=1.01x    frame=  977 fps= 25 q=26.0 size=N/A time=00:00:38.95 bitrate=N/A dup=96 drop=94 speed=1.01x    frame=  989 fps= 25 q=28.0 size=N/A time=00:00:39.46 bitrate=N/A dup=96 drop=94 speed=1.01x    frame= 1002 fps= 25 q=28.0 size=N/A time=00:00:39.95 bitrate=N/A dup=96 drop=94 speed=1.01x    frame= 1015 fps= 25 q=27.0 size=N/A time=00:00:40.46 bitrate=N/A dup=96 drop=94 speed=1.01x    frame= 1027 fps= 25 q=27.0 size=N/A time=00:00:40.93 bitrate=N/A dup=96 drop=94 speed=1.01x    frame= 1040 fps= 25 q=28.0 size=N/A time=00:00:41.47 bitrate=N/A dup=96 drop=94 speed=1.01x    frame= 1052 fps= 25 q=28.0 size=N/A time=00:00:41.94 bitrate=N/A dup=96 drop=94 speed=1.01x    frame= 1065 fps= 25 q=28.0 size=N/A time=00:00:42.47 bitrate=N/A dup=96 drop=94 speed=1.01x    frame= 1077 fps= 25 q=28.0 size=N/A time=00:00:42.94 bitrate=N/A dup=96 drop=94 speed=1.01x    frame= 1090 fps= 25 q=28.0 size=N/A time=00:00:43.47 bitrate=N/A dup=96 drop=94 speed=1.01x    frame= 1102 fps= 25 q=28.0 size=N/A time=00:00:43.94 bitrate=N/A dup=96 drop=94 speed=1.01x    frame= 1115 fps= 25 q=26.0 size=N/A time=00:00:44.45 bitrate=N/A dup=96 drop=94 speed=1.01x    frame= 1127 fps= 25 q=29.0 size=N/A time=00:00:44.97 bitrate=N/A dup=96 drop=94 speed=1.01x    frame= 1139 fps= 25 q=31.0 size=N/A time=00:00:45.46 bitrate=N/A dup=96 drop=94 speed=1.01x    frame= 1152 fps= 25 q=26.0 size=N/A time=00:00:45.97 bitrate=N/A dup=96 drop=94 speed=1.01x    frame= 1165 fps= 25 q=25.0 size=N/A time=00:00:46.46 bitrate=N/A dup=96 drop=94 speed=1.01x    frame= 1177 fps= 25 q=25.0 size=N/A time=00:00:46.97 bitrate=N/A dup=96 drop=94 speed=1.01x    frame= 1190 fps= 25 q=25.0 size=N/A time=00:00:47.46 bitrate=N/A dup=96 drop=94 speed=1.01x    frame= 1202 fps= 25 q=23.0 size=N/A time=00:00:47.97 bitrate=N/A dup=96 drop=94 speed=1.01x    frame= 1215 fps= 25 q=24.0 size=N/A time=00:00:48.46 bitrate=N/A dup=96 drop=94 speed=1.01x    frame= 1227 fps= 25 q=24.0 size=N/A time=00:00:48.96 bitrate=N/A dup=96 drop=94 speed=1.01x    frame= 1240 fps= 25 q=24.0 size=N/A time=00:00:49.47 bitrate=N/A dup=96 drop=94 speed=1.01x    frame= 1252 fps= 25 q=23.0 size=N/A time=00:00:49.96 bitrate=N/A dup=96 drop=94 speed=1.01x    frame= 1265 fps= 25 q=24.0 size=N/A time=00:00:50.47 bitrate=N/A dup=96 drop=94 speed=1.01x    frame= 1277 fps= 25 q=23.0 size=N/A time=00:00:50.94 bitrate=N/A dup=96 drop=94 speed=1.01x    frame= 1290 fps= 25 q=25.0 size=N/A time=00:00:51.47 bitrate=N/A dup=96 drop=94 speed=1.01x    frame= 1302 fps= 25 q=25.0 size=N/A time=00:00:51.94 bitrate=N/A dup=96 drop=94 speed=1.01x    frame= 1315 fps= 25 q=24.0 size=N/A time=00:00:52.45 bitrate=N/A dup=96 drop=94 speed=1.01x    frame= 1327 fps= 25 q=23.0 size=N/A time=00:00:52.99 bitrate=N/A dup=96 drop=94 speed=1.01x    frame= 1340 fps= 25 q=21.0 size=N/A time=00:00:53.46 bitrate=N/A dup=96 drop=94 speed=1.01x    frame= 1352 fps= 25 q=21.0 size=N/A time=00:00:53.99 bitrate=N/A dup=96 drop=94 speed=1.01x    frame= 1365 fps= 25 q=22.0 size=N/A time=00:00:54.46 bitrate=N/A dup=96 drop=94 speed=1.01x    frame= 1377 fps= 25 q=21.0 size=N/A time=00:00:54.99 bitrate=N/A dup=96 drop=94 speed=1.01x    frame= 1390 fps= 25 q=23.0 size=N/A time=00:00:55.46 bitrate=N/A dup=96 drop=94 speed=1.01x    frame= 1402 fps= 25 q=22.0 size=N/A time=00:00:55.97 bitrate=N/A dup=96 drop=94 speed=1.01x    frame= 1415 fps= 25 q=25.0 size=N/A time=00:00:56.46 bitrate=N/A dup=96 drop=94 speed=1.01x    frame= 1427 fps= 25 q=27.0 size=N/A time=00:00:56.98 bitrate=N/A dup=96 drop=94 speed=1.01x    frame= 1440 fps= 25 q=23.0 size=N/A time=00:00:57.47 bitrate=N/A dup=96 drop=94 speed=1.01x    frame= 1452 fps= 25 q=23.0 size=N/A time=00:00:57.98 bitrate=N/A dup=96 drop=94 speed=1.01x    frame= 1465 fps= 25 q=23.0 size=N/A time=00:00:58.47 bitrate=N/A dup=96 drop=94 speed=1.01x    frame= 1477 fps= 25 q=21.0 size=N/A time=00:00:58.94 bitrate=N/A dup=96 drop=94 speed=1.01x    frame= 1490 fps= 25 q=23.0 size=N/A time=00:00:59.47 bitrate=N/A dup=96 drop=94 speed=1.01x    frame= 1502 fps= 25 q=23.0 size=N/A time=00:00:59.99 bitrate=N/A dup=96 drop=94 speed=1.01x    frame= 1515 fps= 25 q=22.0 size=N/A time=00:01:00.45 bitrate=N/A dup=96 drop=94 speed=1.01x    frame= 1527 fps= 25 q=22.0 size=N/A time=00:01:00.99 bitrate=N/A dup=96 drop=94 speed=1.01x    frame= 1540 fps= 25 q=23.0 size=N/A time=00:01:01.46 bitrate=N/A dup=96 drop=94 speed=1.01x    frame= 1552 fps= 25 q=24.0 size=N/A time=00:01:01.99 bitrate=N/A dup=96 drop=94 speed=1.01x    frame= 1565 fps= 25 q=27.0 size=N/A time=00:01:02.46 bitrate=N/A dup=96 drop=94 speed=1.01x    frame= 1577 fps= 25 q=24.0 size=N/A time=00:01:02.99 bitrate=N/A dup=96 drop=94 speed=1.01x    frame= 1590 fps= 25 q=25.0 size=N/A time=00:01:03.46 bitrate=N/A dup=96 drop=94 speed=1.01x    frame= 1602 fps= 25 q=24.0 size=N/A time=00:01:03.97 bitrate=N/A dup=96 drop=94 speed=1.01x    frame= 1615 fps= 25 q=24.0 size=N/A time=00:01:04.47 bitrate=N/A dup=96 drop=94 speed=1.01x    frame= 1627 fps= 25 q=24.0 size=N/A time=00:01:04.98 bitrate=N/A dup=96 drop=94 speed=1.01x    frame= 1640 fps= 25 q=26.0 size=N/A time=00:01:05.47 bitrate=N/A dup=96 drop=94 speed=1.01x    frame= 1652 fps= 25 q=25.0 size=N/A time=00:01:05.98 bitrate=N/A dup=96 drop=94 speed=1.01x    frame= 1665 fps= 25 q=25.0 size=N/A time=00:01:06.47 bitrate=N/A dup=96 drop=94 speed=1.01x    frame= 1677 fps= 25 q=25.0 size=N/A time=00:01:06.98 bitrate=N/A dup=96 drop=94 speed=1.01x    frame= 1690 fps= 25 q=25.0 size=N/A time=00:01:07.47 bitrate=N/A dup=96 drop=94 speed=1.01x    frame= 1702 fps= 25 q=24.0 size=N/A time=00:01:07.99 bitrate=N/A dup=96 drop=94 speed=1.01x    frame= 1715 fps= 25 q=24.0 size=N/A time=00:01:08.45 bitrate=N/A dup=96 drop=94 speed=1.01x    frame= 1727 fps= 25 q=23.0 size=N/A time=00:01:08.99 bitrate=N/A dup=96 drop=94 speed=1.01x    frame= 1740 fps= 25 q=23.0 size=N/A time=00:01:09.46 bitrate=N/A dup=96 drop=94 speed=1.01x    frame= 1752 fps= 25 q=24.0 size=N/A time=00:01:09.99 bitrate=N/A dup=96 drop=94 speed=1.01x    frame= 1765 fps= 25 q=25.0 size=N/A time=00:01:10.46 bitrate=N/A dup=96 drop=94 speed=1.01x    frame= 1777 fps= 25 q=23.0 size=N/A time=00:01:10.99 bitrate=N/A dup=96 drop=94 speed=1.01x    frame= 1790 fps= 25 q=24.0 size=N/A time=00:01:11.46 bitrate=N/A dup=96 drop=94 speed=1.01x    frame= 1802 fps= 25 q=23.0 size=N/A time=00:01:11.97 bitrate=N/A dup=96 drop=94 speed=1.01x    frame= 1815 fps= 25 q=24.0 size=N/A time=00:01:12.47 bitrate=N/A dup=96 drop=94 speed=1.01x    frame= 1827 fps= 25 q=25.0 size=N/A time=00:01:12.98 bitrate=N/A dup=96 drop=94 speed=1.01x    frame= 1840 fps= 25 q=23.0 size=N/A time=00:01:13.47 bitrate=N/A dup=96 drop=94 speed=1.01x    frame= 1852 fps= 25 q=24.0 size=N/A time=00:01:13.98 bitrate=N/A dup=96 drop=94 speed=1.01x    frame= 1865 fps= 25 q=24.0 size=N/A time=00:01:14.47 bitrate=N/A dup=96 drop=94 speed=1.01x    frame= 1877 fps= 25 q=24.0 size=N/A time=00:01:14.98 bitrate=N/A dup=96 drop=94 speed=1.01x    frame= 1890 fps= 25 q=26.0 size=N/A time=00:01:15.47 bitrate=N/A dup=96 drop=94 speed=1.01x    frame= 1902 fps= 25 q=26.0 size=N/A time=00:01:15.99 bitrate=N/A dup=96 drop=94 speed=1.01x    frame= 1915 fps= 25 q=25.0 size=N/A time=00:01:16.45 bitrate=N/A dup=96 drop=94 speed=1.01x    frame= 1928 fps= 25 q=25.0 size=N/A time=00:01:16.99 bitrate=N/A dup=96 drop=94 speed=1.01x    frame= 1940 fps= 25 q=26.0 size=N/A time=00:01:17.46 bitrate=N/A dup=96 drop=94 speed=1.01x    frame= 1952 fps= 25 q=28.0 size=N/A time=00:01:17.99 bitrate=N/A dup=96 drop=94 speed=1.01x    frame= 1965 fps= 25 q=29.0 size=N/A time=00:01:18.46 bitrate=N/A dup=96 drop=94 speed=1.01x    frame= 1978 fps= 25 q=26.0 size=N/A time=00:01:18.99 bitrate=N/A dup=96 drop=94 speed=1.01x    frame= 1990 fps= 25 q=26.0 size=N/A time=00:01:19.46 bitrate=N/A dup=96 drop=94 speed=1.01x    frame= 2003 fps= 25 q=24.0 size=N/A time=00:01:19.97 bitrate=N/A dup=96 drop=94 speed=1.01x    frame= 2015 fps= 25 q=25.0 size=N/A time=00:01:20.47 bitrate=N/A dup=96 drop=94 speed=1.01x    frame= 2028 fps= 25 q=24.0 size=N/A time=00:01:20.98 bitrate=N/A dup=96 drop=94 speed=1.01x    frame= 2040 fps= 25 q=24.0 size=N/A time=00:01:21.47 bitrate=N/A dup=96 drop=94 speed=1.01x    frame= 2053 fps= 25 q=24.0 size=N/A time=00:01:21.98 bitrate=N/A dup=96 drop=94 speed=1.01x    frame= 2065 fps= 25 q=25.0 size=N/A time=00:01:22.47 bitrate=N/A dup=96 drop=94 speed=1.01x    frame= 2077 fps= 25 q=26.0 size=N/A time=00:01:22.98 bitrate=N/A dup=96 drop=94 speed=1.01x    frame= 2090 fps= 25 q=25.0 size=N/A time=00:01:23.47 bitrate=N/A dup=96 drop=94 speed=1.01x    frame= 2103 fps= 25 q=25.0 size=N/A time=00:01:23.99 bitrate=N/A dup=96 drop=94 speed=1.01x    frame= 2115 fps= 25 q=26.0 size=N/A time=00:01:24.45 bitrate=N/A dup=96 drop=94 speed=1.01x    frame= 2128 fps= 25 q=24.0 size=N/A time=00:01:24.99 bitrate=N/A dup=96 drop=94 speed=1.01x    frame= 2140 fps= 25 q=24.0 size=N/A time=00:01:25.46 bitrate=N/A dup=96 drop=94 speed=1.01x    frame= 2153 fps= 25 q=24.0 size=N/A time=00:01:25.99 bitrate=N/A dup=96 drop=94 speed=1.01x    frame= 2165 fps= 25 q=25.0 size=N/A time=00:01:26.46 bitrate=N/A dup=96 drop=94 speed=1.01x    frame= 2178 fps= 25 q=24.0 size=N/A time=00:01:26.99 bitrate=N/A dup=96 drop=94 speed=1.01x    frame= 2190 fps= 25 q=24.0 size=N/A time=00:01:27.46 bitrate=N/A dup=96 drop=94 speed=   1x    frame= 2203 fps= 25 q=25.0 size=N/A time=00:01:27.97 bitrate=N/A dup=96 drop=94 speed=1.01x    frame= 2215 fps= 25 q=25.0 size=N/A time=00:01:28.47 bitrate=N/A dup=96 drop=94 speed=   1x    frame= 2228 fps= 25 q=24.0 size=N/A time=00:01:28.98 bitrate=N/A dup=96 drop=94 speed=1.01x    frame= 2240 fps= 25 q=25.0 size=N/A time=00:01:29.47 bitrate=N/A dup=96 drop=94 speed=   1x    frame= 2253 fps= 25 q=25.0 size=N/A time=00:01:29.98 bitrate=N/A dup=96 drop=94 speed=1.01x    frame= 2265 fps= 25 q=25.0 size=N/A time=00:01:30.47 bitrate=N/A dup=96 drop=94 speed=   1x    frame= 2278 fps= 25 q=24.0 size=N/A time=00:01:30.98 bitrate=N/A dup=96 drop=94 speed=1.01x    frame= 2290 fps= 25 q=24.0 size=N/A time=00:01:31.47 bitrate=N/A dup=96 drop=94 speed=   1x    frame= 2303 fps= 25 q=24.0 size=N/A time=00:01:31.99 bitrate=N/A dup=96 drop=94 speed=   1x    frame= 2315 fps= 25 q=25.0 size=N/A time=00:01:32.45 bitrate=N/A dup=96 drop=94 speed=   1x    frame= 2328 fps= 25 q=25.0 size=N/A time=00:01:32.99 bitrate=N/A dup=96 drop=94 speed=   1x    frame= 2340 fps= 25 q=25.0 size=N/A time=00:01:33.46 bitrate=N/A dup=96 drop=94 speed=   1x    frame= 2353 fps= 25 q=26.0 size=N/A time=00:01:33.99 bitrate=N/A dup=96 drop=94 speed=   1x    frame= 2365 fps= 25 q=26.0 size=N/A time=00:01:34.46 bitrate=N/A dup=96 drop=94 speed=   1x    frame= 2378 fps= 25 q=26.0 size=N/A time=00:01:34.99 bitrate=N/A dup=96 drop=94 speed=   1x    frame= 2390 fps= 25 q=33.0 size=N/A time=00:01:35.46 bitrate=N/A dup=96 drop=94 speed=   1x    frame= 2403 fps= 25 q=28.0 size=N/A time=00:01:35.97 bitrate=N/A dup=96 drop=94 speed=   1x    frame= 2415 fps= 25 q=26.0 size=N/A time=00:01:36.47 bitrate=N/A dup=96 drop=94 speed=   1x    frame= 2428 fps= 25 q=26.0 size=N/A time=00:01:36.98 bitrate=N/A dup=96 drop=94 speed=   1x    frame= 2440 fps= 25 q=25.0 size=N/A time=00:01:37.47 bitrate=N/A dup=96 drop=94 speed=   1x    frame= 2453 fps= 25 q=25.0 size=N/A time=00:01:37.98 bitrate=N/A dup=96 drop=94 speed=   1x    frame= 2465 fps= 25 q=24.0 size=N/A time=00:01:38.47 bitrate=N/A dup=96 drop=94 speed=   1x    frame= 2478 fps= 25 q=24.0 size=N/A time=00:01:38.98 bitrate=N/A dup=96 drop=94 speed=   1x    frame= 2490 fps= 25 q=24.0 size=N/A time=00:01:39.49 bitrate=N/A dup=96 drop=94 speed=   1x    frame= 2503 fps= 25 q=24.0 size=N/A time=00:01:39.99 bitrate=N/A dup=96 drop=94 speed=   1x    frame= 2515 fps= 25 q=25.0 size=N/A time=00:01:40.45 bitrate=N/A dup=96 drop=94 speed=   1x    frame= 2528 fps= 25 q=26.0 size=N/A time=00:01:40.99 bitrate=N/A dup=96 drop=94 speed=   1x    frame= 2540 fps= 25 q=28.0 size=N/A time=00:01:41.48 bitrate=N/A dup=96 drop=94 speed=   1x    frame= 2553 fps= 25 q=27.0 size=N/A time=00:01:41.99 bitrate=N/A dup=96 drop=94 speed=   1x    frame= 2565 fps= 25 q=27.0 size=N/A time=00:01:42.50 bitrate=N/A dup=96 drop=94 speed=   1x    frame= 2578 fps= 25 q=27.0 size=N/A time=00:01:42.99 bitrate=N/A dup=96 drop=94 speed=   1x    frame= 2590 fps= 25 q=27.0 size=N/A time=00:01:43.48 bitrate=N/A dup=96 drop=94 speed=   1x    frame= 2603 fps= 25 q=27.0 size=N/A time=00:01:43.97 bitrate=N/A dup=96 drop=94 speed=   1x    frame= 2615 fps= 25 q=27.0 size=N/A time=00:01:44.51 bitrate=N/A dup=96 drop=94 speed=   1x    frame= 2628 fps= 25 q=27.0 size=N/A time=00:01:44.98 bitrate=N/A dup=96 drop=94 speed=   1x    frame= 2640 fps= 25 q=28.0 size=N/A time=00:01:45.51 bitrate=N/A dup=96 drop=94 speed=   1x    frame= 2653 fps= 25 q=28.0 size=N/A time=00:01:45.98 bitrate=N/A dup=96 drop=94 speed=   1x    frame= 2665 fps= 25 q=29.0 size=N/A time=00:01:46.49 bitrate=N/A dup=96 drop=94 speed=   1x    frame= 2678 fps= 25 q=30.0 size=N/A time=00:01:46.98 bitrate=N/A dup=96 drop=94 speed=   1x    frame= 2690 fps= 25 q=26.0 size=N/A time=00:01:47.49 bitrate=N/A dup=96 drop=94 speed=   1x    frame= 2703 fps= 25 q=24.0 size=N/A time=00:01:47.99 bitrate=N/A dup=96 drop=94 speed=   1x    frame= 2715 fps= 25 q=25.0 size=N/A time=00:01:48.50 bitrate=N/A dup=96 drop=94 speed=   1x    frame= 2728 fps= 25 q=24.0 size=N/A time=00:01:48.99 bitrate=N/A dup=96 drop=94 speed=   1x    frame= 2740 fps= 25 q=24.0 size=N/A time=00:01:49.50 bitrate=N/A dup=96 drop=94 speed=   1x    frame= 2753 fps= 25 q=24.0 size=N/A time=00:01:49.99 bitrate=N/A dup=96 drop=94 speed=   1x    frame= 2765 fps= 25 q=24.0 size=N/A time=00:01:50.50 bitrate=N/A dup=96 drop=94 speed=   1x    frame= 2778 fps= 25 q=24.0 size=N/A time=00:01:50.99 bitrate=N/A dup=96 drop=94 speed=   1x    frame= 2790 fps= 25 q=21.0 size=N/A time=00:01:51.51 bitrate=N/A dup=96 drop=94 speed=   1x    frame= 2803 fps= 25 q=24.0 size=N/A time=00:01:51.97 bitrate=N/A dup=96 drop=94 speed=   1x    frame= 2815 fps= 25 q=25.0 size=N/A time=00:01:52.51 bitrate=N/A dup=96 drop=94 speed=   1x    frame= 2828 fps= 25 q=26.0 size=N/A time=00:01:52.98 bitrate=N/A dup=96 drop=94 speed=   1x    frame= 2840 fps= 25 q=25.0 size=N/A time=00:01:53.51 bitrate=N/A dup=96 drop=94 speed=   1x    frame= 2853 fps= 25 q=25.0 size=N/A time=00:01:53.98 bitrate=N/A dup=96 drop=94 speed=   1x    frame= 2865 fps= 25 q=25.0 size=N/A time=00:01:54.47 bitrate=N/A dup=96 drop=94 speed=   1x    frame= 2878 fps= 25 q=25.0 size=N/A time=00:01:54.98 bitrate=N/A dup=96 drop=94 speed=   1x    frame= 2890 fps= 25 q=24.0 size=N/A time=00:01:55.50 bitrate=N/A dup=96 drop=94 speed=   1x    frame= 2903 fps= 25 q=26.0 size=N/A time=00:01:55.99 bitrate=N/A dup=96 drop=94 speed=   1x    frame= 2915 fps= 25 q=27.0 size=N/A time=00:01:56.50 bitrate=N/A dup=96 drop=94 speed=   1x    frame= 2928 fps= 25 q=28.0 size=N/A time=00:01:56.99 bitrate=N/A dup=96 drop=94 speed=   1x    frame= 2940 fps= 25 q=29.0 size=N/A time=00:01:57.50 bitrate=N/A dup=96 drop=94 speed=   1x    frame= 2953 fps= 25 q=27.0 size=N/A time=00:01:57.99 bitrate=N/A dup=96 drop=94 speed=   1x    frame= 2965 fps= 25 q=31.0 size=N/A time=00:01:58.50 bitrate=N/A dup=96 drop=94 speed=   1x    frame= 2978 fps= 25 q=33.0 size=N/A time=00:01:58.99 bitrate=N/A dup=96 drop=94 speed=   1x    frame= 2990 fps= 25 q=33.0 size=N/A time=00:01:59.51 bitrate=N/A dup=96 drop=94 speed=   1x    frame= 3003 fps= 25 q=31.0 size=N/A time=00:01:59.98 bitrate=N/A dup=96 drop=94 speed=   1x    frame= 3015 fps= 25 q=32.0 size=N/A time=00:02:00.51 bitrate=N/A dup=96 drop=94 speed=   1x    frame= 3028 fps= 25 q=32.0 size=N/A time=00:02:00.98 bitrate=N/A dup=96 drop=94 speed=   1x    frame= 3040 fps= 25 q=31.0 size=N/A time=00:02:01.51 bitrate=N/A dup=96 drop=94 speed=   1x    frame= 3053 fps= 25 q=32.0 size=N/A time=00:02:01.98 bitrate=N/A dup=96 drop=94 speed=   1x    frame= 3065 fps= 25 q=30.0 size=N/A time=00:02:02.51 bitrate=N/A dup=96 drop=94 speed=   1x    frame= 3078 fps= 25 q=30.0 size=N/A time=00:02:02.98 bitrate=N/A dup=96 drop=94 speed=   1x    frame= 3090 fps= 25 q=30.0 size=N/A time=00:02:03.50 bitrate=N/A dup=96 drop=94 speed=   1x    frame= 3103 fps= 25 q=31.0 size=N/A time=00:02:03.99 bitrate=N/A dup=96 drop=94 speed=   1x    frame= 3116 fps= 25 q=27.0 size=N/A time=00:02:04.50 bitrate=N/A dup=96 drop=94 speed=   1x    frame= 3128 fps= 25 q=29.0 size=N/A time=00:02:04.99 bitrate=N/A dup=96 drop=94 speed=   1x    frame= 3140 fps= 25 q=29.0 size=N/A time=00:02:05.50 bitrate=N/A dup=96 drop=94 speed=   1x    frame= 3153 fps= 25 q=28.0 size=N/A time=00:02:05.99 bitrate=N/A dup=96 drop=94 speed=   1x    frame= 3166 fps= 25 q=27.0 size=N/A time=00:02:06.50 bitrate=N/A dup=96 drop=94 speed=   1x    frame= 3178 fps= 25 q=27.0 size=N/A time=00:02:06.99 bitrate=N/A dup=96 drop=94 speed=   1x    frame= 3190 fps= 25 q=27.0 size=N/A time=00:02:07.51 bitrate=N/A dup=96 drop=94 speed=   1x    frame= 3203 fps= 25 q=26.0 size=N/A time=00:02:07.98 bitrate=N/A dup=96 drop=94 speed=   1x    frame= 3216 fps= 25 q=26.0 size=N/A time=00:02:08.51 bitrate=N/A dup=96 drop=94 speed=   1x    frame= 3228 fps= 25 q=22.0 size=N/A time=00:02:08.98 bitrate=N/A dup=96 drop=94 speed=   1x    frame= 3241 fps= 25 q=22.0 size=N/A time=00:02:09.51 bitrate=N/A dup=96 drop=94 speed=   1x    frame= 3253 fps= 25 q=26.0 size=N/A time=00:02:09.98 bitrate=N/A dup=96 drop=94 speed=   1x    frame= 3265 fps= 25 q=28.0 size=N/A time=00:02:10.51 bitrate=N/A dup=96 drop=94 speed=   1x    frame= 3278 fps= 25 q=27.0 size=N/A time=00:02:10.98 bitrate=N/A dup=96 drop=94 speed=   1x    frame= 3290 fps= 25 q=28.0 size=N/A time=00:02:11.50 bitrate=N/A dup=96 drop=94 speed=   1x    frame= 3303 fps= 25 q=28.0 size=N/A time=00:02:11.99 bitrate=N/A dup=96 drop=94 speed=   1x    frame= 3315 fps= 25 q=27.0 size=N/A time=00:02:12.50 bitrate=N/A dup=96 drop=94 speed=   1x    frame= 3328 fps= 25 q=28.0 size=N/A time=00:02:12.99 bitrate=N/A dup=96 drop=94 speed=   1x    frame= 3340 fps= 25 q=31.0 size=N/A time=00:02:13.50 bitrate=N/A dup=96 drop=94 speed=   1x    frame= 3353 fps= 25 q=33.0 size=N/A time=00:02:13.99 bitrate=N/A dup=96 drop=94 speed=   1x    frame= 3365 fps= 25 q=33.0 size=N/A time=00:02:14.50 bitrate=N/A dup=96 drop=94 speed=   1x    frame= 3378 fps= 25 q=34.0 size=N/A time=00:02:14.99 bitrate=N/A dup=96 drop=94 speed=   1x    frame= 3390 fps= 25 q=33.0 size=N/A time=00:02:15.51 bitrate=N/A dup=96 drop=94 speed=   1x    frame= 3403 fps= 25 q=31.0 size=N/A time=00:02:15.98 bitrate=N/A dup=96 drop=94 speed=   1x    frame= 3416 fps= 25 q=28.0 size=N/A time=00:02:16.51 bitrate=N/A dup=96 drop=94 speed=   1x    frame= 3428 fps= 25 q=27.0 size=N/A time=00:02:16.98 bitrate=N/A dup=96 drop=94 speed=   1x    frame= 3441 fps= 25 q=27.0 size=N/A time=00:02:17.51 bitrate=N/A dup=96 drop=94 speed=   1x    frame= 3453 fps= 25 q=26.0 size=N/A time=00:02:17.98 bitrate=N/A dup=96 drop=94 speed=   1x    frame= 3466 fps= 25 q=26.0 size=N/A time=00:02:18.51 bitrate=N/A dup=96 drop=94 speed=   1x    frame= 3478 fps= 25 q=20.0 size=N/A time=00:02:18.98 bitrate=N/A dup=96 drop=94 speed=   1x    frame= 3490 fps= 25 q=26.0 size=N/A time=00:02:19.50 bitrate=N/A dup=96 drop=94 speed=   1x    frame= 3503 fps= 25 q=23.0 size=N/A time=00:02:19.99 bitrate=N/A dup=96 drop=94 speed=   1x    frame= 3515 fps= 25 q=26.0 size=N/A time=00:02:20.50 bitrate=N/A dup=96 drop=94 speed=   1x    frame= 3528 fps= 25 q=26.0 size=N/A time=00:02:20.99 bitrate=N/A dup=96 drop=94 speed=   1x    frame= 3540 fps= 25 q=24.0 size=N/A time=00:02:21.50 bitrate=N/A dup=96 drop=94 speed=   1x    frame= 3553 fps= 25 q=26.0 size=N/A time=00:02:21.99 bitrate=N/A dup=96 drop=94 speed=   1x    frame= 3565 fps= 25 q=26.0 size=N/A time=00:02:22.50 bitrate=N/A dup=96 drop=94 speed=   1x    frame= 3578 fps= 25 q=26.0 size=N/A time=00:02:22.99 bitrate=N/A dup=96 drop=94 speed=   1x    frame= 3591 fps= 25 q=17.0 size=N/A time=00:02:23.51 bitrate=N/A dup=96 drop=94 speed=   1x    frame= 3603 fps= 25 q=16.0 size=N/A time=00:02:23.98 bitrate=N/A dup=96 drop=94 speed=   1x    frame= 3616 fps= 25 q=15.0 size=N/A time=00:02:24.51 bitrate=N/A dup=96 drop=94 speed=   1x    frame= 3628 fps= 25 q=27.0 size=N/A time=00:02:24.98 bitrate=N/A dup=96 drop=94 speed=   1x    frame= 3641 fps= 25 q=17.0 size=N/A time=00:02:25.51 bitrate=N/A dup=96 drop=94 speed=   1x    frame= 3653 fps= 25 q=16.0 size=N/A time=00:02:25.98 bitrate=N/A dup=96 drop=94 speed=   1x    frame= 3666 fps= 25 q=17.0 size=N/A time=00:02:26.51 bitrate=N/A dup=96 drop=94 speed=   1x    [flv @ 0x76d824878f00] Failed to update header with correct duration.
[flv @ 0x76d824878f00] Failed to update header with correct filesize.
[flv @ 0x76d8248855c0] Failed to update header with correct duration.
[flv @ 0x76d8248855c0] Failed to update header with correct filesize.
[out#0/tee @ 0x55b694639440] video:79158KiB audio:2327KiB subtitle:0KiB other streams:0KiB global headers:0KiB muxing overhead: unknown
frame= 3678 fps= 25 q=12.0 Lsize=N/A time=00:02:27.04 bitrate=N/A dup=96 drop=94 speed=   1x    
[libx264 @ 0x55b694635940] frame I:16    Avg QP:21.58  size:132000
[libx264 @ 0x55b694635940] frame P:3662  Avg QP:22.87  size: 21558
[libx264 @ 0x55b694635940] mb I  I16..4: 31.1% 32.1% 36.9%
[libx264 @ 0x55b694635940] mb P  I16..4:  8.0%  7.2%  1.3%  P16..4: 21.5%  6.7%  2.3%  0.0%  0.0%    skip:53.0%
[libx264 @ 0x55b694635940] 8x8 transform intra:43.1% inter:34.2%
[libx264 @ 0x55b694635940] coded y,uvDC,uvAC intra: 37.4% 50.4% 19.6% inter: 7.7% 11.2% 1.3%
[libx264 @ 0x55b694635940] i16 v,h,dc,p: 34% 49% 13%  3%
[libx264 @ 0x55b694635940] i8 v,h,dc,ddl,ddr,vr,hd,vl,hu: 20% 33% 32%  2%  2%  2%  3%  2%  4%
[libx264 @ 0x55b694635940] i4 v,h,dc,ddl,ddr,vr,hd,vl,hu: 15% 49% 16%  3%  3%  3%  4%  3%  4%
[libx264 @ 0x55b694635940] i8c dc,h,v,p: 50% 34% 12%  3%
[libx264 @ 0x55b694635940] Weighted P-Frames: Y:0.0% UV:0.0%
[libx264 @ 0x55b694635940] kb/s:4407.74
[aac @ 0x55b69463d200] Qavg: 723.601
Exiting normally, received signal 15.
